<svg width="1440" height="498" viewBox="0 0 1440 498" fill="none" xmlns="http://www.w3.org/2000/svg">
<path d="M305.139 213.144C303.971 200.337 298.496 190.348 288.715 183.176C279.08 176.004 264.409 172.418 244.701 172.418C232.146 172.418 221.854 173.763 213.825 176.452C205.942 179.014 200.102 182.535 196.307 187.018C192.511 191.5 190.54 196.623 190.394 202.386C190.102 207.124 191.051 211.415 193.241 215.257C195.577 218.971 199.226 222.364 204.19 225.438C209.153 228.383 215.504 231.073 223.241 233.506C230.978 235.939 240.175 238.117 250.832 240.038L287.62 246.953C312.438 251.564 333.679 257.647 351.343 265.203C369.007 272.759 383.46 281.659 394.701 291.905C405.941 302.022 414.19 313.42 419.445 326.099C424.847 338.777 427.62 352.608 427.766 367.592C427.62 393.462 420.248 415.361 405.649 433.291C391.051 451.22 370.175 464.859 343.022 474.208C316.014 483.557 283.533 488.231 245.576 488.231C206.598 488.231 172.584 483.173 143.533 473.055C114.628 462.938 92.1459 447.378 76.0876 426.375C60.1752 405.244 52.146 378.222 52 345.309L167.62 345.309C168.35 357.347 171.781 367.464 177.912 375.661C184.044 383.857 192.657 390.068 203.752 394.294C214.993 398.52 228.35 400.634 243.825 400.634C256.817 400.634 267.693 399.225 276.452 396.407C285.212 393.59 291.854 389.684 296.379 384.689C300.905 379.695 303.241 373.996 303.387 367.592C303.241 361.573 300.978 356.322 296.598 351.84C292.365 347.23 285.358 343.131 275.577 339.546C265.796 335.832 252.584 332.374 235.941 329.172L191.27 320.72C151.562 313.164 120.248 300.549 97.3284 282.876C74.5547 265.075 63.2409 240.806 63.3869 210.07C63.2409 185.097 70.8321 163.261 86.1606 144.564C101.635 125.738 123.022 111.074 150.321 100.573C177.766 90.0711 209.226 84.8204 244.701 84.8204C280.905 84.8204 312.219 90.1352 338.642 100.765C365.066 111.394 385.431 126.378 399.737 145.716C414.19 164.926 421.489 187.402 421.635 213.144L305.139 213.144Z" fill="black"/>
<path d="M476.708 489L475.832 188.555L596.708 188.555L595.832 489L476.708 489ZM536.27 157.819C519.919 157.819 505.905 153.08 494.226 143.603C482.547 134.126 476.708 122.728 476.708 109.409C476.708 96.0903 482.547 84.6924 494.226 75.2154C505.905 65.7385 519.919 61 536.27 61C552.766 61 566.781 65.7385 578.314 75.2154C589.992 84.6924 595.832 96.0904 595.832 109.409C595.832 122.728 589.992 134.126 578.314 143.603C566.781 153.08 552.766 157.819 536.27 157.819Z" fill="black"/>
<path d="M779.171 90.1993L779.171 489H658.295V90.1993L779.171 90.1993Z" fill="black"/>
<path d="M1002.8 489C966.306 489 935.065 482.661 909.08 469.982C883.094 457.175 863.167 439.374 849.299 416.578C835.43 393.654 828.496 367.08 828.496 336.856C828.496 306.632 835.43 280.123 849.299 257.327C863.167 234.403 883.094 216.601 909.08 203.923C935.065 191.116 966.306 184.713 1002.8 184.713C1039.3 184.713 1070.54 191.116 1096.52 203.923C1122.51 216.601 1142.44 234.403 1156.31 257.327C1170.17 280.123 1177.11 306.633 1177.11 336.856C1177.11 367.08 1170.17 393.654 1156.31 416.578C1142.44 439.374 1122.51 457.175 1096.52 469.982C1070.54 482.661 1039.3 489 1002.8 489ZM1003.68 410.623C1013.9 410.623 1022.73 407.613 1030.17 401.594C1037.62 395.575 1043.39 386.995 1047.47 375.853C1051.56 364.711 1053.61 351.456 1053.61 336.088C1053.61 320.592 1051.56 307.337 1047.47 296.323C1043.39 285.181 1037.62 276.601 1030.17 270.582C1022.73 264.563 1013.9 261.553 1003.68 261.553C992.875 261.553 983.605 264.563 975.868 270.582C968.131 276.601 962.218 285.181 958.131 296.323C954.043 307.337 951.999 320.592 951.999 336.088C951.999 351.456 954.043 364.711 958.131 375.853C962.218 386.995 968.131 395.575 975.868 401.594C983.605 407.613 992.875 410.623 1003.68 410.623Z" fill="black"/>
<path d="M1248.64 372.273L1314.94 427.685L1388 489L1248.64 489V372.273Z" fill="#FF322E"/>
</svg>
