<svg width="1336" height="428" viewBox="0 0 1336 428" fill="none" xmlns="http://www.w3.org/2000/svg">
<path d="M253.139 152.144C251.971 139.337 246.496 129.348 236.715 122.176C227.08 115.004 212.409 111.418 192.701 111.418C180.146 111.418 169.854 112.763 161.825 115.452C153.942 118.014 148.102 121.535 144.307 126.018C140.511 130.5 138.54 135.623 138.394 141.386C138.102 146.124 139.051 150.415 141.241 154.257C143.577 157.971 147.226 161.364 152.19 164.438C157.153 167.383 163.504 170.073 171.241 172.506C178.978 174.939 188.175 177.117 198.832 179.038L235.62 185.953C260.438 190.564 281.679 196.647 299.343 204.203C317.007 211.759 331.46 220.659 342.701 230.905C353.941 241.022 362.19 252.42 367.445 265.099C372.847 277.777 375.62 291.608 375.766 306.592C375.62 332.462 368.248 354.361 353.649 372.291C339.051 390.22 318.175 403.859 291.022 413.208C264.014 422.557 231.533 427.231 193.576 427.231C154.598 427.231 120.584 422.173 91.5328 412.055C62.6277 401.938 40.1459 386.378 24.0876 365.375C8.17516 344.244 0.14598 317.222 0 284.309L115.62 284.309C116.35 296.347 119.781 306.464 125.912 314.661C132.044 322.857 140.657 329.068 151.752 333.294C162.993 337.52 176.35 339.634 191.825 339.634C204.817 339.634 215.693 338.225 224.452 335.407C233.212 332.59 239.854 328.684 244.379 323.689C248.905 318.695 251.241 312.996 251.387 306.592C251.241 300.573 248.978 295.322 244.598 290.84C240.365 286.23 233.358 282.131 223.577 278.546C213.796 274.832 200.584 271.374 183.941 268.172L139.27 259.72C99.562 252.164 68.2481 239.549 45.3284 221.876C22.5547 204.075 11.2409 179.806 11.3869 149.07C11.2409 124.097 18.8321 102.261 34.1606 83.5636C49.635 64.7378 71.0219 50.0741 98.3212 39.5726C125.766 29.0711 157.226 23.8204 192.701 23.8204C228.905 23.8204 260.219 29.1352 286.642 39.7648C313.066 50.3943 333.431 65.3781 347.737 84.7163C362.19 103.926 369.489 126.402 369.635 152.144L253.139 152.144Z" fill="black"/>
<path d="M424.708 428L423.832 127.555L544.708 127.555L543.832 428L424.708 428ZM484.27 96.8186C467.919 96.8186 453.905 92.0801 442.226 82.6032C430.547 73.1262 424.708 61.7283 424.708 48.4093C424.708 35.0903 430.547 23.6924 442.226 14.2154C453.905 4.73847 467.919 -2.95104e-06 484.27 0C500.766 2.97739e-06 514.781 4.73848 526.314 14.2154C537.992 23.6924 543.832 35.0904 543.832 48.4093C543.832 61.7283 537.992 73.1263 526.314 82.6032C514.781 92.0802 500.766 96.8186 484.27 96.8186Z" fill="black"/>
<path d="M727.171 29.1993L727.171 428H606.295V29.1993L727.171 29.1993Z" fill="black"/>
<path d="M950.802 428C914.306 428 883.065 421.661 857.08 408.982C831.094 396.175 811.167 378.374 797.299 355.578C783.43 332.654 776.496 306.08 776.496 275.856C776.496 245.632 783.43 219.123 797.299 196.327C811.167 173.403 831.094 155.601 857.08 142.923C883.065 130.116 914.306 123.713 950.802 123.713C987.299 123.713 1018.54 130.116 1044.52 142.923C1070.51 155.601 1090.44 173.403 1104.31 196.327C1118.17 219.123 1125.11 245.633 1125.11 275.856C1125.11 306.08 1118.17 332.654 1104.31 355.578C1090.44 378.374 1070.51 396.175 1044.52 408.982C1018.54 421.661 987.299 428 950.802 428ZM951.678 349.623C961.897 349.623 970.729 346.613 978.175 340.594C985.62 334.575 991.386 325.995 995.474 314.853C999.561 303.711 1001.61 290.456 1001.61 275.088C1001.61 259.592 999.561 246.337 995.474 235.323C991.386 224.181 985.62 215.601 978.175 209.582C970.729 203.563 961.897 200.553 951.678 200.553C940.875 200.553 931.605 203.563 923.868 209.582C916.131 215.601 910.218 224.181 906.131 235.323C902.043 246.337 899.999 259.592 899.999 275.088C899.999 290.456 902.043 303.711 906.131 314.853C910.218 325.995 916.131 334.575 923.868 340.594C931.605 346.613 940.875 349.623 951.678 349.623Z" fill="black"/>
<path d="M1196.64 311.273L1262.94 366.685L1336 428L1196.64 428V311.273Z" fill="#FF322E"/>
</svg>
